<svg width="20" height="20" viewBox="0 0 20 20" fill="none" xmlns="http://www.w3.org/2000/svg">
<path d="M12.5003 15.8332C12.5003 17.2139 11.381 18.3332 10.0003 18.3332C8.61954 18.3332 7.50026 17.2139 7.50026 15.8332M11.4973 5.19864C11.8603 4.8237 12.0836 4.31285 12.0836 3.74984C12.0836 2.59924 11.1508 1.6665 10.0003 1.6665C8.84966 1.6665 7.91692 2.59924 7.91692 3.74984C7.91692 4.31285 8.14026 4.8237 8.50317 5.19864M15.0003 9.33317C15.0003 8.1839 14.4735 7.0817 13.5358 6.26904C12.5981 5.45638 11.3263 4.99984 10.0003 4.99984C8.67417 4.99984 7.4024 5.45638 6.46472 6.26904C5.52704 7.0817 5.00026 8.1839 5.00026 9.33317C5.00026 11.2347 4.5287 12.6253 3.94031 13.6204C3.2697 14.7545 2.9344 15.3216 2.94764 15.457C2.96279 15.612 2.99069 15.6609 3.11637 15.7528C3.22623 15.8332 3.77818 15.8332 4.88208 15.8332H15.1184C16.2223 15.8332 16.7743 15.8332 16.8841 15.7528C17.0098 15.6609 17.0377 15.612 17.0529 15.457C17.0661 15.3216 16.7308 14.7545 16.0602 13.6204C15.4718 12.6253 15.0003 11.2347 15.0003 9.33317Z" stroke="#14151A" style="stroke:#14151A;stroke:color(display-p3 0.0794 0.0830 0.1010);stroke-opacity:1;" stroke-width="1.5" stroke-linecap="round" stroke-linejoin="round"/>
</svg>
