<svg width="14" height="14" viewBox="0 0 14 14" fill="none" xmlns="http://www.w3.org/2000/svg">
<path d="M1.75 5.25002V4.78347C1.75 4.13007 1.75 3.80313 1.87716 3.55357C1.98901 3.33405 2.16736 3.1557 2.38688 3.04385C2.63645 2.91669 2.96339 2.91669 3.61678 2.91669H10.3834C11.0368 2.91669 11.3631 2.91669 11.6126 3.04385C11.8322 3.1557 12.0111 3.33405 12.123 3.55357C12.25 3.80289 12.25 4.12943 12.25 4.78155V5.25002M1.75 5.25002H12.25M1.75 5.25002V9.2168C1.75 9.8702 1.75 10.1967 1.87716 10.4463C1.98901 10.6658 2.16736 10.8445 2.38688 10.9563C2.6362 11.0834 2.96275 11.0834 3.61486 11.0834H10.3851C11.0373 11.0834 11.3633 11.0834 11.6126 10.9563C11.8322 10.8445 12.0111 10.6658 12.123 10.4463C12.25 10.197 12.25 9.87089 12.25 9.21877V5.25002" stroke="#14151A" style="stroke:#14151A;stroke:color(display-p3 0.0794 0.0830 0.1010);stroke-opacity:1;" stroke-linecap="round" stroke-linejoin="round"/>
<path d="M3.5 8.75H5.83333" stroke="#14151A" style="stroke:#14151A;stroke:color(display-p3 0.0794 0.0830 0.1010);stroke-opacity:1;" stroke-linecap="round" stroke-linejoin="round"/>
</svg>
