<svg width="20" height="20" viewBox="0 0 20 20" fill="none" xmlns="http://www.w3.org/2000/svg">
<path d="M2.5 7.50002V6.83352C2.5 5.9001 2.5 5.43304 2.68166 5.07652C2.84144 4.76291 3.09623 4.50813 3.40983 4.34834C3.76635 4.16669 4.23341 4.16669 5.16683 4.16669H14.8335C15.7669 4.16669 16.233 4.16669 16.5895 4.34834C16.9031 4.50813 17.1587 4.76291 17.3185 5.07652C17.5 5.43269 17.5 5.89918 17.5 6.83078V7.50002M2.5 7.50002H17.5M2.5 7.50002V13.1668C2.5 14.1003 2.5 14.5667 2.68166 14.9233C2.84144 15.2369 3.09623 15.4921 3.40983 15.6519C3.766 15.8334 4.23249 15.8334 5.16409 15.8334H14.8359C15.7675 15.8334 16.2333 15.8334 16.5895 15.6519C16.9031 15.4921 17.1587 15.2369 17.3185 14.9233C17.5 14.5671 17.5 14.1013 17.5 13.1697V7.50002" stroke="#14151A" style="stroke:#14151A;stroke:color(display-p3 0.0794 0.0830 0.1010);stroke-opacity:1;" stroke-width="1.5" stroke-linecap="round" stroke-linejoin="round"/>
<path d="M5 12.5H8.33333" stroke="#14151A" style="stroke:#14151A;stroke:color(display-p3 0.0794 0.0830 0.1010);stroke-opacity:1;" stroke-width="1.5" stroke-linecap="round" stroke-linejoin="round"/>
</svg>
