<svg width="20" height="20" viewBox="0 0 20 20" fill="none" xmlns="http://www.w3.org/2000/svg">
<path d="M2.5 7.49999V6.83349C2.5 5.90007 2.5 5.43301 2.68166 5.07649C2.84144 4.76288 3.09623 4.5081 3.40983 4.34831C3.76635 4.16666 4.23341 4.16666 5.16683 4.16666H14.8335C15.7669 4.16666 16.233 4.16666 16.5895 4.34831C16.9031 4.5081 17.1587 4.76288 17.3185 5.07649C17.5 5.43266 17.5 5.89915 17.5 6.83075V7.49999M2.5 7.49999H17.5M2.5 7.49999V13.1668C2.5 14.1002 2.5 14.5667 2.68166 14.9232C2.84144 15.2368 3.09623 15.4921 3.40983 15.6518C3.766 15.8333 4.23249 15.8333 5.16409 15.8333H14.8359C15.7675 15.8333 16.2333 15.8333 16.5895 15.6518C16.9031 15.4921 17.1587 15.2368 17.3185 14.9232C17.5 14.5671 17.5 14.1012 17.5 13.1696V7.49999" stroke="#14151A" stroke-width="1.5" stroke-linecap="round" stroke-linejoin="round"/>
<path d="M5 12.5H8.33333" stroke="#14151A" stroke-width="1.5" stroke-linecap="round" stroke-linejoin="round"/>
</svg>
