<svg width="14" height="14" viewBox="0 0 14 14" fill="none" xmlns="http://www.w3.org/2000/svg">
<path d="M1.75 5.24999V4.78344C1.75 4.13004 1.75 3.8031 1.87716 3.55354C1.98901 3.33402 2.16736 3.15567 2.38688 3.04382C2.63645 2.91666 2.96339 2.91666 3.61678 2.91666H10.3834C11.0368 2.91666 11.3631 2.91666 11.6126 3.04382C11.8322 3.15567 12.0111 3.33402 12.123 3.55354C12.25 3.80286 12.25 4.1294 12.25 4.78152V5.24999M1.75 5.24999H12.25M1.75 5.24999V9.21677C1.75 9.87016 1.75 10.1967 1.87716 10.4463C1.98901 10.6658 2.16736 10.8444 2.38688 10.9563C2.6362 11.0833 2.96275 11.0833 3.61486 11.0833H10.3851C11.0373 11.0833 11.3633 11.0833 11.6126 10.9563C11.8322 10.8444 12.0111 10.6658 12.123 10.4463C12.25 10.1969 12.25 9.87086 12.25 9.21874V5.24999" stroke="#14151A" stroke-linecap="round" stroke-linejoin="round"/>
<path d="M3.5 8.75H5.83333" stroke="#14151A" stroke-linecap="round" stroke-linejoin="round"/>
</svg>
