<svg width="24" height="24" viewBox="0 0 24 24" fill="none" xmlns="http://www.w3.org/2000/svg">
<g clip-path="url(#clip0_9232_76188)">
<path d="M4.31802 17.2919C3 16.2505 3 15.4633 3 12.1111C3 8.7589 3 7.0828 4.31802 6.0414C5.63604 5 7.75736 5 12 5C16.2426 5 18.364 5 19.682 6.0414C21 7.0828 21 8.7589 21 12.1111C21 15.4633 21 16.2505 19.682 17.2919C18.364 18.3333 16.2426 18.3333 12 18.3333H12C9.74147 18.3333 8.57976 19.8778 6.6 21V18.1451C5.61546 18.0005 4.89087 17.7446 4.31802 17.2919Z" stroke="black" style="stroke:black;stroke-opacity:1;" stroke-width="1.5" stroke-linecap="round" stroke-linejoin="round"/>
<g clip-path="url(#clip1_9232_76188)">
<path d="M7.202 15.0596C6.747 15.0596 6.5 14.8061 6.5 14.3121V9.92456C6.5 9.41106 6.773 9.13806 7.2865 9.13806H9.061C9.5615 9.13806 9.8215 9.37206 9.8215 9.76856C9.8215 10.1586 9.5615 10.3991 9.061 10.3991H7.904V11.4391H9.0285C9.542 11.4391 9.7565 11.6341 9.7565 12.0241C9.7565 12.4141 9.542 12.6091 9.0285 12.6091H7.904V14.3121C7.904 14.8061 7.6635 15.0596 7.202 15.0596ZM12.1283 14.0131H11.2573L11.2053 14.5851C11.1533 14.9361 10.8868 15.1181 10.3863 15.0531C9.99634 15.0076 9.77534 14.7541 9.83384 14.3511L10.3993 9.86606C10.4773 9.33956 10.8023 9.06006 11.2768 9.06006H12.1218C12.5963 9.06006 12.9213 9.33956 12.9993 9.86606L13.5843 14.3511C13.6493 14.7541 13.4153 15.0076 13.0253 15.0596C12.5378 15.1311 12.2648 14.9361 12.2063 14.5851L12.1283 14.0131ZM11.9788 12.8171L11.6928 10.1066L11.4133 12.8171H11.9788ZM15.6881 16.0606C15.2526 16.0606 15.0121 15.8331 15.0121 15.4886V15.0466C14.3426 14.9036 13.8746 14.5201 13.8746 13.7531V10.3666C13.8746 9.35906 14.6871 9.00806 15.6816 9.00806C16.6761 9.00806 17.4951 9.35906 17.4951 10.3666V13.7531C17.4951 14.5201 17.0271 14.9036 16.3576 15.0466V15.4886C16.3576 15.7421 16.1236 16.0606 15.6881 16.0606ZM15.2656 10.5811V13.5386C15.2656 13.7791 15.4541 13.9026 15.6816 13.9026C15.9156 13.9026 16.1041 13.7791 16.1041 13.5386V10.5811C16.1041 10.3406 15.9156 10.2171 15.6816 10.2171C15.4541 10.2171 15.2656 10.3406 15.2656 10.5811Z" fill="#2B2A33" style="fill:#2B2A33;fill:color(display-p3 0.1686 0.1647 0.2000);fill-opacity:1;"/>
</g>
</g>
<defs>
<clipPath id="clip0_9232_76188">
<rect width="24" height="24" fill="white" style="fill:white;fill-opacity:1;"/>
</clipPath>
<clipPath id="clip1_9232_76188">
<rect width="12" height="8" fill="white" style="fill:white;fill-opacity:1;" transform="translate(6 9)"/>
</clipPath>
</defs>
</svg>
