<svg width="24" height="24" viewBox="0 0 24 24" fill="none" xmlns="http://www.w3.org/2000/svg">
<g clip-path="url(#clip0_9232_76196)">
<path d="M10 9.50224C10.1762 9.00136 10.524 8.57901 10.9817 8.30998C11.4395 8.04095 11.9777 7.9426 12.501 8.03237C13.0243 8.12213 13.499 8.39421 13.8409 8.80041C14.1829 9.20661 14.37 9.72072 14.3692 10.2517C14.3692 11.7506 12.1209 12.5 12.1209 12.5M12.1499 15.5H12.1599" stroke="black" style="stroke:black;stroke-opacity:1;" stroke-width="1.5" stroke-linecap="round" stroke-linejoin="round"/>
<path d="M4.31802 17.2919C3 16.2505 3 15.4633 3 12.1111C3 8.7589 3 7.0828 4.31802 6.0414C5.63604 5 7.75736 5 12 5C16.2426 5 18.364 5 19.682 6.0414C21 7.0828 21 8.7589 21 12.1111C21 15.4633 21 16.2505 19.682 17.2919C18.364 18.3333 16.2426 18.3333 12 18.3333H12C9.74147 18.3333 8.57976 19.8778 6.6 21V18.1451C5.61546 18.0005 4.89087 17.7446 4.31802 17.2919Z" stroke="black" style="stroke:black;stroke-opacity:1;" stroke-width="1.5" stroke-linecap="round" stroke-linejoin="round"/>
</g>
<defs>
<clipPath id="clip0_9232_76196">
<rect width="24" height="24" fill="white" style="fill:white;fill-opacity:1;"/>
</clipPath>
</defs>
</svg>
