<svg width="44" height="11" viewBox="0 0 44 11" fill="none" xmlns="http://www.w3.org/2000/svg">
<g clip-path="url(#clip0_9227_53581)">
<path d="M25.5288 9.6052C25.5288 9.6888 25.5552 9.7372 25.6036 9.7372C25.6432 9.7328 25.6784 9.7152 25.7092 9.6932L39.424 0.792002C39.6557 0.630025 39.9334 0.546737 40.216 0.554402H43.23C43.692 0.554402 44.0044 0.862402 44.0044 1.3244V7.0796C44.0044 7.7748 43.8504 8.1796 43.2344 8.5492L39.578 10.7492C39.5415 10.7745 39.499 10.7897 39.4548 10.7932C39.4108 10.7932 39.3668 10.758 39.3668 10.6304V3.916C39.3668 3.8368 39.3448 3.784 39.292 3.784C39.2534 3.78845 39.2168 3.8037 39.1864 3.828L29.1632 10.34C28.9344 10.494 28.666 10.5776 28.3932 10.5732H21.7492C21.2828 10.5732 20.9748 10.2652 20.9748 9.7988V1.5048C20.9748 1.4432 20.9484 1.386 20.8956 1.386C20.8571 1.39089 20.8206 1.40609 20.79 1.43L14.1768 5.3988C14.1108 5.4428 14.0932 5.4736 14.0932 5.5044C14.0932 5.5308 14.1064 5.5572 14.1504 5.6056L18.876 10.3268C18.9376 10.3884 18.9816 10.4368 18.9816 10.4896C18.9816 10.5336 18.9112 10.5688 18.8276 10.5688H14.5596C14.2252 10.5688 13.9656 10.5204 13.7852 10.34L10.9208 7.48C10.9099 7.46702 10.8965 7.45641 10.8814 7.44884C10.8662 7.44127 10.8497 7.4369 10.8328 7.436C10.8017 7.43744 10.7715 7.44651 10.7448 7.4624L5.9576 10.34C5.6672 10.516 5.4692 10.5644 5.1832 10.5644H0.7788C0.308 10.5688 0 10.2564 0 9.7944V4.1492C0 3.4496 0.154 3.0492 0.7744 2.6796L4.4528 0.470802C4.48166 0.451904 4.51513 0.441253 4.5496 0.440002C4.6068 0.440002 4.6376 0.497202 4.6376 0.624802V8.184C4.6376 8.2632 4.6552 8.2984 4.7124 8.2984C4.752 8.294 4.7872 8.2764 4.8224 8.2544L17.248 0.778802C17.4856 0.616002 17.776 0.536802 18.0664 0.550002H24.7544C25.2164 0.550002 25.5288 0.858002 25.5288 1.32L25.5244 9.6052H25.5288Z" fill="#28292B"/>
</g>
<defs>
<clipPath id="clip0_9227_53581">
<rect width="44" height="11" fill="white"/>
</clipPath>
</defs>
</svg>
