<svg width="44" height="12" viewBox="0 0 44 12" fill="none" xmlns="http://www.w3.org/2000/svg">
<g clip-path="url(#clip0_9228_14884)">
<path d="M25.5288 10.1052C25.5288 10.1888 25.5552 10.2372 25.6036 10.2372C25.6432 10.2328 25.6784 10.2152 25.7092 10.1932L39.424 1.292C39.6557 1.13003 39.9334 1.04674 40.216 1.0544H43.23C43.692 1.0544 44.0044 1.3624 44.0044 1.8244V7.5796C44.0044 8.2748 43.8504 8.6796 43.2344 9.0492L39.578 11.2492C39.5415 11.2745 39.499 11.2897 39.4548 11.2932C39.4108 11.2932 39.3668 11.258 39.3668 11.1304V4.416C39.3668 4.3368 39.3448 4.284 39.292 4.284C39.2534 4.28845 39.2168 4.3037 39.1864 4.328L29.1632 10.84C28.9344 10.994 28.666 11.0776 28.3932 11.0732H21.7492C21.2828 11.0732 20.9748 10.7652 20.9748 10.2988V2.0048C20.9748 1.9432 20.9484 1.886 20.8956 1.886C20.8571 1.89089 20.8206 1.90609 20.79 1.93L14.1768 5.8988C14.1108 5.9428 14.0932 5.9736 14.0932 6.0044C14.0932 6.0308 14.1064 6.0572 14.1504 6.1056L18.876 10.8268C18.9376 10.8884 18.9816 10.9368 18.9816 10.9896C18.9816 11.0336 18.9112 11.0688 18.8276 11.0688H14.5596C14.2252 11.0688 13.9656 11.0204 13.7852 10.84L10.9208 7.98C10.9099 7.96702 10.8965 7.95641 10.8814 7.94884C10.8662 7.94127 10.8497 7.9369 10.8328 7.936C10.8017 7.93744 10.7715 7.94651 10.7448 7.9624L5.9576 10.84C5.6672 11.016 5.4692 11.0644 5.1832 11.0644H0.7788C0.308 11.0688 0 10.7564 0 10.2944V4.6492C0 3.9496 0.154 3.5492 0.7744 3.1796L4.4528 0.970802C4.48166 0.951904 4.51513 0.941253 4.5496 0.940002C4.6068 0.940002 4.6376 0.997202 4.6376 1.1248V8.684C4.6376 8.7632 4.6552 8.7984 4.7124 8.7984C4.752 8.794 4.7872 8.7764 4.8224 8.7544L17.248 1.2788C17.4856 1.116 17.776 1.0368 18.0664 1.05H24.7544C25.2164 1.05 25.5288 1.358 25.5288 1.82L25.5244 10.1052H25.5288Z" fill="#28292B" style="fill:#28292B;fill:color(display-p3 0.1569 0.1608 0.1686);fill-opacity:1;"/>
</g>
<defs>
<clipPath id="clip0_9228_14884">
<rect width="44" height="11" fill="white" style="fill:white;fill-opacity:1;" transform="translate(0 0.5)"/>
</clipPath>
</defs>
</svg>
