<svg width="20" height="20" viewBox="0 0 20 20" fill="none" xmlns="http://www.w3.org/2000/svg">
<path d="M6.66602 7.50002V5.83335C6.66602 3.53217 7.69818 1.66669 9.99935 1.66669C12.3005 1.66669 13.3327 3.53217 13.3327 5.83335V7.50002" stroke="#14151A" stroke-width="1.5" stroke-linecap="round" stroke-linejoin="round"/>
<path d="M2.91602 14.0008V10.1675C2.91602 9.23404 2.91602 8.76733 3.09767 8.41081C3.25746 8.09721 3.51243 7.84224 3.82603 7.68245C4.18255 7.50079 4.64926 7.50079 5.58268 7.50079H14.416C15.3494 7.50079 15.8161 7.50079 16.1727 7.68245C16.4863 7.84224 16.7412 8.09721 16.901 8.41081C17.0827 8.76733 17.0827 9.23404 17.0827 10.1675V14.0008C17.0827 14.9342 17.0827 15.4009 16.901 15.7574C16.7412 16.071 16.4863 16.326 16.1727 16.4858C15.8161 16.6675 15.3494 16.6675 14.416 16.6675H5.58268C4.64926 16.6675 4.18255 16.6675 3.82603 16.4858C3.51243 16.326 3.25746 16.071 3.09767 15.7574C2.91602 15.4009 2.91602 14.9342 2.91602 14.0008Z" stroke="#14151A" stroke-width="1.5" stroke-linecap="round" stroke-linejoin="round"/>
<path d="M13 11.1666V13.6666" stroke="#14151A" stroke-width="1.5" stroke-linecap="round" stroke-linejoin="round"/>
</svg>
