<svg width="20" height="20" viewBox="0 0 20 20" fill="none" xmlns="http://www.w3.org/2000/svg">
<path d="M6.66608 7.49999V5.83332C6.66608 3.53214 7.69824 1.66666 9.99941 1.66666C12.3006 1.66666 13.3327 3.53214 13.3327 5.83332V7.49999" stroke="#14151A" stroke-width="1.5" stroke-linecap="round" stroke-linejoin="round"/>
<path d="M2.91608 14.0008V10.1675C2.91608 9.23407 2.91608 8.76736 3.09773 8.41084C3.25752 8.09724 3.51249 7.84227 3.82609 7.68248C4.18261 7.50082 4.64932 7.50082 5.58274 7.50082H14.4161C15.3495 7.50082 15.8162 7.50082 16.1727 7.68248C16.4863 7.84227 16.7413 8.09724 16.9011 8.41084C17.0827 8.76736 17.0827 9.23407 17.0827 10.1675V14.0008C17.0827 14.9342 17.0827 15.401 16.9011 15.7575C16.7413 16.0711 16.4863 16.326 16.1727 16.4858C15.8162 16.6675 15.3495 16.6675 14.4161 16.6675H5.58274C4.64932 16.6675 4.18261 16.6675 3.82609 16.4858C3.51249 16.326 3.25752 16.0711 3.09773 15.7575C2.91608 15.401 2.91608 14.9342 2.91608 14.0008Z" stroke="#14151A" stroke-width="1.5" stroke-linecap="round" stroke-linejoin="round"/>
<path d="M13 11.1666V13.6666" stroke="#14151A" stroke-width="1.5" stroke-linecap="round" stroke-linejoin="round"/>
</svg>
