<svg width="56" height="30" viewBox="0 0 56 30" fill="none" xmlns="http://www.w3.org/2000/svg">
<path d="M3.19212 7.96399C3.19212 7.01199 3.52812 6.22799 3.89212 5.75199H1.98812V2.97999H8.62412V1.18799H12.7121V2.97999H19.3481V5.75199H17.4441C17.7801 6.22799 18.1441 7.01199 18.1441 7.96399C18.1441 10.092 16.4081 11.688 14.0001 11.688H7.22412C4.81612 11.688 3.19212 10.092 3.19212 7.96399ZM22.0361 1.80399H26.0121V16.672H22.0361V1.80399ZM13.1041 5.86399H8.23212C7.25212 5.86399 6.60812 6.56399 6.60812 7.37599C6.60812 8.27199 7.25212 8.85999 8.23212 8.85999H13.1321C14.1121 8.85999 14.7561 8.27199 14.7561 7.37599C14.7561 6.56399 14.1121 5.86399 13.1041 5.86399ZM7.42012 23.672V24.904H26.4321V27.536H3.41612V21.292H22.0081V20.172H3.41612V17.624H7.84012L8.37212 15.44H1.12012V12.696H20.8881V15.44H12.2641L11.7321 17.624H26.0121V23.672H7.42012ZM53.8161 14.852H49.8401V1.80399H53.8161V14.852ZM46.6481 12.976L30.3521 14.264V2.33599H44.6321V5.41599H34.2721V10.848L46.6481 9.83999V12.976ZM54.2921 27.536H31.5281V20.368H49.8681V18.632H31.5281V15.916H53.8161V22.888H35.4481V24.736H54.2921V27.536Z" fill="#222222" style="fill:#222222;fill:color(display-p3 0.1322 0.1322 0.1322);fill-opacity:1;"/>
</svg>
