<svg width="24" height="24" viewBox="0 0 24 24" fill="none" xmlns="http://www.w3.org/2000/svg">
<path d="M19.0349 5.096L15.4889 17.506L12.4489 11.426L6.8119 9.171L19.0349 5.096ZM21.1009 2.3L2.2949 8.568C2.19757 8.60026 2.1125 8.66167 2.05124 8.7439C1.98998 8.82613 1.95549 8.92521 1.95243 9.02771C1.94938 9.1302 1.97791 9.23116 2.03416 9.3169C2.09041 9.40263 2.17166 9.469 2.2669 9.507L10.9999 13L15.4249 21.85C15.4699 21.9401 15.5411 22.0145 15.6292 22.0635C15.7172 22.1125 15.818 22.1337 15.9183 22.1244C16.0186 22.1151 16.1138 22.0757 16.1913 22.0114C16.2689 21.9471 16.3252 21.8609 16.3529 21.764L21.7399 2.911C21.7649 2.82342 21.7654 2.73068 21.7415 2.6428C21.7176 2.55492 21.6702 2.47524 21.6043 2.41235C21.5384 2.34946 21.4566 2.30576 21.3677 2.28596C21.2788 2.26616 21.1862 2.27102 21.0999 2.3H21.1009Z" fill="#14151A"/>
</svg>
