<svg width="24" height="24" viewBox="0 0 24 24" fill="none" xmlns="http://www.w3.org/2000/svg">
<path d="M19.035 5.096L15.489 17.506L12.449 11.426L6.81202 9.171L19.035 5.096ZM21.101 2.3L2.29502 8.568C2.19769 8.60026 2.11263 8.66167 2.05137 8.7439C1.99011 8.82613 1.95561 8.92521 1.95255 9.02771C1.9495 9.1302 1.97803 9.23116 2.03428 9.3169C2.09053 9.40263 2.17178 9.469 2.26702 9.507L11 13L15.425 21.85C15.47 21.9401 15.5412 22.0145 15.6293 22.0635C15.7173 22.1125 15.8181 22.1337 15.9184 22.1244C16.0187 22.1151 16.1139 22.0757 16.1915 22.0114C16.269 21.9471 16.3253 21.8609 16.353 21.764L21.74 2.911C21.765 2.82342 21.7655 2.73068 21.7416 2.6428C21.7177 2.55492 21.6703 2.47524 21.6044 2.41235C21.5385 2.34946 21.4568 2.30576 21.3679 2.28596C21.279 2.26616 21.1864 2.27102 21.1 2.3H21.101Z" fill="#14151A"/>
</svg>
