<svg width="24" height="24" viewBox="0 0 24 24" fill="none" xmlns="http://www.w3.org/2000/svg">
<path d="M19.035 5.09599L15.489 17.506L12.449 11.426L6.81202 9.17099L19.035 5.09599ZM21.101 2.29999L2.29502 8.56799C2.19769 8.60025 2.11263 8.66166 2.05137 8.74389C1.99011 8.82612 1.95561 8.9252 1.95255 9.02769C1.9495 9.13019 1.97803 9.23114 2.03428 9.31688C2.09053 9.40262 2.17178 9.46898 2.26702 9.50699L11 13L15.425 21.85C15.47 21.9401 15.5412 22.0145 15.6293 22.0635C15.7173 22.1124 15.8181 22.1337 15.9184 22.1244C16.0187 22.1151 16.1139 22.0757 16.1915 22.0114C16.269 21.9471 16.3253 21.8608 16.353 21.764L21.74 2.91099C21.765 2.8234 21.7655 2.73066 21.7416 2.64278C21.7177 2.55491 21.6703 2.47522 21.6044 2.41233C21.5385 2.34945 21.4568 2.30575 21.3679 2.28595C21.279 2.26615 21.1864 2.271 21.1 2.29999H21.101Z" fill="#14151A"/>
</svg>
