<svg width="20" height="16" viewBox="0 0 20 16" fill="none" xmlns="http://www.w3.org/2000/svg">
<path d="M4 6V5.4668C4 4.72006 4 4.34641 4.14532 4.0612C4.27316 3.81031 4.47698 3.60649 4.72786 3.47866C5.01308 3.33333 5.38673 3.33333 6.13346 3.33333H13.8668C14.6135 3.33333 14.9864 3.33333 15.2716 3.47866C15.5225 3.60649 15.727 3.81031 15.8548 4.0612C16 4.34613 16 4.71933 16 5.46461V6M4 6H16M4 6V10.5335C4 11.2802 4 11.6534 4.14532 11.9386C4.27316 12.1895 4.47698 12.3937 4.72786 12.5215C5.0128 12.6667 5.386 12.6667 6.13127 12.6667H13.8687C14.614 12.6667 14.9867 12.6667 15.2716 12.5215C15.5225 12.3937 15.727 12.1895 15.8548 11.9386C16 11.6537 16 11.281 16 10.5357V6" stroke="#0F1324" stroke-opacity="0.8" style="stroke:#0F1324;stroke:color(display-p3 0.0588 0.0745 0.1412);stroke-opacity:0.8;" stroke-linecap="round" stroke-linejoin="round"/>
<path d="M6 10H8.66667" stroke="#0F1324" stroke-opacity="0.8" style="stroke:#0F1324;stroke:color(display-p3 0.0588 0.0745 0.1412);stroke-opacity:0.8;" stroke-linecap="round" stroke-linejoin="round"/>
</svg>
