<svg width="20" height="16" viewBox="0 0 20 16" fill="none" xmlns="http://www.w3.org/2000/svg">
<path d="M4 6.00001V5.46681C4 4.72007 4 4.34642 4.14532 4.06121C4.27316 3.81033 4.47698 3.6065 4.72786 3.47867C5.01308 3.33334 5.38673 3.33334 6.13346 3.33334H13.8668C14.6135 3.33334 14.9864 3.33334 15.2716 3.47867C15.5225 3.6065 15.727 3.81033 15.8548 4.06121C16 4.34614 16 4.71934 16 5.46462V6.00001M4 6.00001H16M4 6.00001V10.5335C4 11.2802 4 11.6534 4.14532 11.9386C4.27316 12.1895 4.47698 12.3937 4.72786 12.5215C5.0128 12.6667 5.386 12.6667 6.13127 12.6667H13.8687C14.614 12.6667 14.9867 12.6667 15.2716 12.5215C15.5225 12.3937 15.727 12.1895 15.8548 11.9386C16 11.6537 16 11.281 16 10.5357V6.00001" stroke="#0F1324" stroke-opacity="0.8" stroke-linecap="round" stroke-linejoin="round"/>
<path d="M6 10H8.66667" stroke="#0F1324" stroke-opacity="0.8" stroke-linecap="round" stroke-linejoin="round"/>
</svg>
