<svg width="20" height="20" viewBox="0 0 20 20" fill="none" xmlns="http://www.w3.org/2000/svg">
<path d="M5.5 16V18M14.5 16V18M2.8 7.84423C1.9 7.86491 1 8.27086 1 9V13C1 14.6569 2.20883 16 3.7 16H16.3C17.7912 16 19 14.6569 19 13V9C19 8.18811 18.1 7.82354 17.2 7.84423M2.8 7.84423C3.7 7.82354 4.6 8.18811 4.6 9C4.6 10.3627 4.82496 12 6.6 12H13.4C15.175 12 15.4 10.3627 15.4 9C15.4 8.27086 16.3 7.86491 17.2 7.84423M2.8 7.84423V5C2.8 3.34315 4.00883 2 5.5 2H14.5C15.9912 2 17.2 3.34315 17.2 5V7.84423" stroke="#14151A" style="stroke:#14151A;stroke:color(display-p3 0.0794 0.0830 0.1010);stroke-opacity:1;" stroke-width="1.5" stroke-linecap="round" stroke-linejoin="round"/>
</svg>
