<svg width="53" height="15" viewBox="0 0 53 15" fill="none" xmlns="http://www.w3.org/2000/svg">
<path fill-rule="evenodd" clip-rule="evenodd" d="M-7.36279 31.0003L13.0825 4.7764C14.0098 3.71778 16.6261 2.16213 20.1332 1.76106C23.6064 1.36388 27.9078 2.10801 32.1897 5.58704C33.147 6.36492 34.1776 8.00704 35.2311 10.5019C36.2715 12.9654 37.2911 16.1522 38.2802 19.8993C40.2576 27.391 42.0937 37.0468 43.7315 47.4714C43.7506 47.5934 43.7698 47.7155 43.7889 47.8377L45.4814 49.0281L47.2088 61.2136L45.9279 62.7175C48.0631 78.828 49.6948 95.118 50.6416 106.942H-3.16836L-0.797812 83.8189L-2.30903 83.6639L-4.76539 107.624L-4.85121 108.461H-4.00978H51.4639H52.2857L52.2211 107.642C50.9904 92.0176 48.5148 68.1293 45.2322 47.2356C43.5912 36.7908 41.7458 27.0766 39.749 19.5116C38.7509 15.7304 37.7101 12.4672 36.6306 9.91087C35.5643 7.3858 34.4154 5.4381 33.1476 4.40802C28.5287 0.655182 23.8136 -0.188853 19.9606 0.251759C16.1569 0.686737 13.1449 2.38295 11.9218 3.79607L11.909 3.81079L11.897 3.82614L-8.56832 30.0759L-8.57578 30.0854L-8.58294 30.0953L-24.1771 51.4723L-24.2082 51.5148L-24.233 51.5613C-25.1871 53.3428 -25.6348 57.5935 -21.1897 61.5707L-21.1594 61.5978L-21.1264 61.6215L12.0905 85.4853L12.724 85.9404L13.1621 85.295L19.1273 76.5077L19.5077 75.9475L18.9946 75.5056L-6.79237 53.2978L7.8686 41.1473L6.89922 39.9777L-8.45398 52.7019L-9.1462 53.2756L-8.46496 53.8622L17.4901 76.2148L12.3433 83.7964L-20.2066 60.4118C-24.0587 56.9451 -23.523 53.5127 -22.9165 52.322L-7.36279 31.0003Z" fill="#67657A" style="fill:#67657A;fill:color(display-p3 0.4039 0.3961 0.4784);fill-opacity:1;"/>
</svg>
