<svg width="18" height="18" viewBox="0 0 18 18" fill="none" xmlns="http://www.w3.org/2000/svg">
<path d="M7.42496 2.25041C7.46756 1.82441 7.82603 1.5 8.25416 1.5H9.74584C10.174 1.5 10.5324 1.82441 10.575 2.25041L10.6027 2.52724C11.26 2.68946 11.8789 2.94917 12.4432 3.29017L12.659 3.11359C12.9903 2.84249 13.4732 2.86657 13.7759 3.1693L14.8307 4.22408C15.1335 4.52682 15.1575 5.00969 14.8864 5.34104L14.7099 5.55686C15.0508 6.12111 15.3105 6.73999 15.4728 7.39727L15.7496 7.42496C16.1756 7.46756 16.5 7.82603 16.5 8.25415V9.74584C16.5 10.174 16.1756 10.5324 15.7496 10.575L15.4728 10.6027C15.3105 11.26 15.0508 11.8789 14.7098 12.4432L14.8864 12.659C15.1575 12.9903 15.1334 13.4732 14.8307 13.7759L13.7759 14.8307C13.4732 15.1335 12.9903 15.1575 12.659 14.8864L12.4431 14.7099C11.8789 15.0508 11.26 15.3105 10.6027 15.4728L10.575 15.7496C10.5324 16.1756 10.174 16.5 9.74584 16.5H8.25416C7.82603 16.5 7.46756 16.1756 7.42496 15.7496L7.39728 15.4728C6.73999 15.3105 6.12111 15.0508 5.55685 14.7098L5.34107 14.8864C5.00972 15.1575 4.52685 15.1334 4.22412 14.8307L3.16934 13.7759C2.86661 13.4732 2.84252 12.9903 3.11363 12.659L3.29017 12.4432C2.94917 11.8789 2.68946 11.26 2.52724 10.6027L2.25041 10.575C1.82441 10.5324 1.5 10.174 1.5 9.74584V8.25416C1.5 7.82603 1.82441 7.46756 2.25041 7.42496L2.52724 7.39728C2.68945 6.73999 2.94916 6.12111 3.29015 5.55685L3.1136 5.34107C2.8425 5.00972 2.86658 4.52685 3.16931 4.22412L4.22409 3.16934C4.52682 2.86661 5.0097 2.84252 5.34105 3.11363L5.55682 3.29017C6.12108 2.94917 6.73998 2.68946 7.39728 2.52724L7.42496 2.25041Z" stroke="#2B2A33" stroke-width="1.5" stroke-miterlimit="1" stroke-linecap="round" stroke-linejoin="round"/>
</svg>
